<svg xmlns="http://www.w3.org/2000/svg" version="1.1" xmlns:xlink="http://www.w3.org/1999/xlink" xmlns:svgjs="http://svgjs.dev/svgjs" viewBox="0 0 800 800" opacity="1"><defs><linearGradient x1="50%" y1="0%" x2="50%" y2="100%" id="gggyrate-grad"><stop stop-color="hsl(184, 74%, 44%)" stop-opacity="1" offset="0%"></stop><stop stop-color="hsl(332, 87%, 70%)" stop-opacity="1" offset="100%"></stop></linearGradient></defs><g stroke-width="2" stroke="url(#gggyrate-grad)" fill="none"><path d="M399.9999694824219 -108.0675048828125L839.999997598138 145.96625934830206V654.0337878105312L399.9999694824219 908.0675520416457L-40.0000586332942 654.0337878105312V145.96625934830206L399.9999694824219 -108.0675048828125Z " transform="rotate(1100, 400, 400)" opacity="0.35"></path><path d="M399.9999694824219 -95.3658447265625L828.999996895245 152.31707539877414V647.6829156494475L399.9999694824219 895.365835774784L-29.000057930401283 647.6829156494475V152.31707539877414L399.9999694824219 -95.3658447265625Z " transform="rotate(1072.5, 400, 400)" opacity="0.34"></path><path d="M399.9999694824219 -82.66412353515625L817.9999961923522 158.66795248440258V641.3321045235203L399.9999694824219 882.664180543079L-18.00005722750842 641.3321045235203V158.66795248440258L399.9999694824219 -82.66412353515625Z " transform="rotate(1045, 400, 400)" opacity="0.60"></path><path d="M399.9999694824219 -69.96246337890625L806.9999954894593 165.01876853487477V634.9812323624367L399.9999694824219 869.9624642762178L-7.000056524615502 634.9812323624367V165.01876853487477L399.9999694824219 -69.96246337890625Z " transform="rotate(1017.5, 400, 400)" opacity="0.86"></path><path d="M399.9999694824219 -57.26080322265625L795.9999947865663 171.3695845853469V628.6303602013531L399.9999694824219 857.2607480093563L3.999944178277417 628.6303602013531V171.3695845853469L399.9999694824219 -57.26080322265625Z " transform="rotate(990, 400, 400)" opacity="0.14"></path><path d="M399.9999694824219 -44.55908203125L784.9999940836733 177.72046167097528V622.2795490754258L399.9999694824219 844.5590927776511L14.99994488117028 622.2795490754258V177.72046167097528L399.9999694824219 -44.55908203125Z " transform="rotate(962.5, 400, 400)" opacity="0.27"></path><path d="M400.0000305175781 -31.857421875L774.0000544159368 184.07127772144736V615.9286769143421L400.0000305175781 831.8573765107894L26.000006619219448 615.9286769143421V184.07127772144736L400.0000305175781 -31.857421875Z " transform="rotate(935, 400, 400)" opacity="0.72"></path><path d="M400.0000305175781 -19.15570068359375L763.0000537130439 190.4221548070758V609.5778657884148L400.0000305175781 819.1557212790844L37.00000732211237 609.5778657884148V190.4221548070758L400.0000305175781 -19.15570068359375Z " transform="rotate(907.5, 400, 400)" opacity="0.24"></path><path d="M400.0000305175781 -6.45404052734375L752.000053010151 196.77297085754788V603.2269936273312L400.0000305175781 806.4540050122228L48.000008025005286 603.2269936273312V196.77297085754788L400.0000305175781 -6.45404052734375Z " transform="rotate(880, 400, 400)" opacity="0.10"></path><path d="M400.0000305175781 6.2476806640625L741.0000523072581 203.12384794317632V596.8761825014038L400.0000305175781 793.7523497805178L59.00000872789815 596.8761825014038V203.12384794317632L400.0000305175781 6.2476806640625Z " transform="rotate(852.5, 400, 400)" opacity="0.38"></path><path d="M400.0000305175781 18.9493408203125L730.0000516043651 209.4746639936484V590.5253103403203L400.0000305175781 781.0506335136562L70.00000943079107 590.5253103403203V209.4746639936484L400.0000305175781 18.9493408203125Z " transform="rotate(825, 400, 400)" opacity="0.44"></path><path d="M400.0000305175781 31.651031494140625L719.0000509014724 215.8255105616987V584.1744686968149L400.0000305175781 768.3489477643728L81.00001013368399 584.1744686968149V215.8255105616987L400.0000305175781 31.651031494140625Z " transform="rotate(797.5, 400, 400)" opacity="0.93"></path><path d="M400.0000305175781 44.35272216796875L708.0000501985794 222.1763571297489V577.8236270533092L400.0000305175781 755.6472620150895L92.00001083657685 577.8236270533092V222.1763571297489L400.0000305175781 44.35272216796875Z " transform="rotate(770, 400, 400)" opacity="0.16"></path><path d="M400.0000305175781 57.054412841796875L697.0000494956864 228.52720369779922V571.4727854098039L400.0000305175781 742.9455762658063L103.00001153946977 571.4727854098039V228.52720369779922L400.0000305175781 57.054412841796875Z " transform="rotate(742.5, 400, 400)" opacity="0.54"></path><path d="M400.0000305175781 69.756103515625L686.0000487927936 234.87805026584948V565.1219437662985L400.0000305175781 730.2438905165229L114.00001224236269 565.1219437662985V234.87805026584948L400.0000305175781 69.756103515625Z " transform="rotate(715, 400, 400)" opacity="0.75"></path><path d="M400.0000305175781 82.45779418945312L675.0000480899007 241.22889683389974V558.771102122793L400.0000305175781 717.5422047672396L125.00001294525555 558.771102122793V241.22889683389974L400.0000305175781 82.45779418945312Z " transform="rotate(687.5, 400, 400)" opacity="0.19"></path><path d="M400.0000305175781 95.15948486328125L664.0000473870078 247.57974340195V552.4202604792875L400.0000305175781 704.8405190179562L136.00001364814847 552.4202604792875V247.57974340195L400.0000305175781 95.15948486328125Z " transform="rotate(660, 400, 400)" opacity="0.73"></path><path d="M400.00001525878906 107.86117553710938L653.0000314253258 253.93058997000026V546.069418835782L400.00001525878906 692.1388332686729L146.99999909225232 546.069418835782V253.93058997000026L400.00001525878906 107.86117553710938Z " transform="rotate(632.5, 400, 400)" opacity="0.95"></path><path d="M400.00001525878906 120.5628662109375L642.0000307224329 260.2814365380505V539.7185771922766L400.00001525878906 679.4371475193896L157.99999979514524 539.7185771922766V260.2814365380505L400.00001525878906 120.5628662109375Z " transform="rotate(605, 400, 400)" opacity="0.22"></path><path d="M400 133.26455688476562L631.0000147607509 266.6322831061008V533.3677355487711L400 666.7354617701062L168.99998523924904 533.3677355487711V266.6322831061008L400 133.26455688476562Z " transform="rotate(577.5, 400, 400)" opacity="0.46"></path><path d="M400 145.96624755859375L620.000014057858 272.98312967415103V527.0168939052655L400 654.0337760208229L179.99998594214196 527.0168939052655V272.98312967415103L400 145.96624755859375Z " transform="rotate(550, 400, 400)" opacity="0.81"></path><path d="M400 158.66793823242188L609.0000133549652 279.3339762422013V520.6660522617601L400 641.3320902715395L190.99998664503488 520.6660522617601V279.3339762422013L400 158.66793823242188Z " transform="rotate(522.5, 400, 400)" opacity="0.32"></path><path d="M400 171.36959838867188L598.0000126520722 285.6847922926735V514.3151801006766L400 628.6303740046782L201.99998734792774 514.3151801006766V285.6847922926735L400 171.36959838867188Z " transform="rotate(495, 400, 400)" opacity="0.16"></path><path d="M400 184.0712890625L587.0000119491793 292.0356388607237V507.96433845717104L400 615.9286882553947L212.99998805082066 507.96433845717104V292.0356388607237L400 184.0712890625Z " transform="rotate(467.5, 400, 400)" opacity="0.27"></path><path d="M400 196.77297973632812L576.0000112462865 298.38648542877394V501.6134968136656L400 603.2270025061114L223.99998875371358 501.6134968136656V298.38648542877394L400 196.77297973632812Z " transform="rotate(440, 400, 400)" opacity="0.34"></path><path d="M400 209.47467041015625L565.0000105433935 304.7373319968242V495.2626551701601L400 590.525316756828L234.99998945660644 495.2626551701601V304.7373319968242L400 209.47467041015625Z " transform="rotate(412.5, 400, 400)" opacity="0.67"></path><path d="M400 222.17636108398438L554.0000098405006 311.08817856487445V488.91181352665467L400 577.8236310075447L245.99999015949936 488.91181352665467V311.08817856487445L400 222.17636108398438Z " transform="rotate(385, 400, 400)" opacity="0.44"></path><path d="M400 234.8780517578125L543.0000091376078 317.4390251329247V482.56097188314925L400 565.1219452582615L256.9999908623923 482.56097188314925V317.4390251329247L400 234.8780517578125Z " transform="rotate(357.5, 400, 400)" opacity="0.90"></path><path d="M400 247.57974243164062L532.0000084347148 323.789871700975V476.2101302396438L400 552.4202595089781L267.9999915652852 476.2101302396438V323.789871700975L400 247.57974243164062Z " transform="rotate(330, 400, 400)" opacity="0.34"></path><path d="M400 260.28143310546875L521.0000077318219 330.14071826902523V469.8592885961383L400 539.7185737596948L278.99999226817806 469.8592885961383V330.14071826902523L400 260.28143310546875Z " transform="rotate(302.5, 400, 400)" opacity="0.19"></path><path d="M400 272.9831237792969L510.000007028929 336.49156483707554V463.50844695263277L400 527.0168880104114L289.999992971071 463.50844695263277V336.49156483707554L400 272.9831237792969Z " transform="rotate(275, 400, 400)" opacity="0.49"></path><path d="M400 285.68479919433594L499.0000063260361 342.84239614633674V457.1575900503383L400 514.3151870023391L300.9999936739639 457.1575900503383V342.84239614633674L400 285.68479919433594Z " transform="rotate(247.5, 400, 400)" opacity="0.61"></path><path d="M400 298.38648986816406L488.00000562314324 349.193242714387V450.8067484068328L400 501.6135012530557L311.99999437685676 450.8067484068328V349.193242714387L400 298.38648986816406Z " transform="rotate(220, 400, 400)" opacity="0.63"></path><path d="M400 311.0881805419922L477.0000049202503 355.54408928243726V444.45590676332733L400 488.91181550377235L322.9999950797497 444.45590676332733V355.54408928243726L400 311.0881805419922Z " transform="rotate(192.5, 400, 400)" opacity="0.65"></path><path d="M400 323.7898712158203L466.0000042173574 361.8949358504875V438.1050651198219L400 476.21012975448906L333.9999957826426 438.1050651198219V361.8949358504875L400 323.7898712158203Z " transform="rotate(165, 400, 400)" opacity="0.19"></path><path d="M400 336.49156188964844L455.00000351446454 368.2457824185378V431.7542234763164L400 463.5084440052057L344.99999648553546 431.7542234763164V368.2457824185378L400 336.49156188964844Z " transform="rotate(137.5, 400, 400)" opacity="0.52"></path><path d="M400 349.19325256347656L444.0000028115716 374.59662898658803V425.40338183281096L400 450.8067582559224L355.9999971884284 425.40338183281096V374.59662898658803L400 349.19325256347656Z " transform="rotate(110, 400, 400)" opacity="0.80"></path><path d="M400 361.8949279785156L433.0000021086787 380.9474602958492V419.0525249305164L400 438.10505724785L366.9999978913213 419.0525249305164V380.9474602958492L400 361.8949279785156Z " transform="rotate(82.5, 400, 400)" opacity="0.08"></path><path d="M400 374.59661865234375L422.0000014057858 387.2983068638995V412.70168328701095L400 425.4033714985667L377.9999985942142 412.70168328701095V387.2983068638995L400 374.59661865234375Z " transform="rotate(55, 400, 400)" opacity="0.32"></path><path d="M400 387.2983093261719L411.0000007028929 393.64915343194974V406.3508416435055L400 412.70168574928334L388.9999992971071 406.3508416435055V393.64915343194974L400 387.2983093261719Z " transform="rotate(27.5, 400, 400)" opacity="0.73"></path></g></svg>